<svg width="438.549" height="438.549" xmlns="http://www.w3.org/2000/svg">

 <g>
  <title>background</title>
  <rect fill="none" id="canvas_background" height="402" width="582" y="-1" x="-1"/>
 </g>
 <g>
  <title>Layer 1</title>
  <g id="svg_1">
   <path fill="#ffffff" id="svg_2" d="m352.040558,135.923279c-15.002716,-25.705414 -35.352966,-46.056435 -61.056122,-61.05764c-25.70694,-15.001968 -53.771255,-22.501041 -84.21286,-22.501041c-30.437775,0 -58.511292,7.501366 -84.212891,22.501049c-25.705421,15.000435 -46.054916,35.352219 -61.057648,61.057648c-15.000435,25.704651 -22.501038,53.774338 -22.501038,84.208282c0,36.55806 10.665962,69.432022 32.003235,98.630295c21.334976,29.200562 48.896622,49.406189 82.682617,60.619232c3.932785,0.72995 6.844116,0.216553 8.737061,-1.527222c1.893707,-1.746002 2.839417,-3.93277 2.839417,-6.551056c0,-0.43689 -0.037491,-4.367371 -0.110184,-11.796082c-0.074997,-7.42865 -0.110184,-13.909332 -0.110184,-19.438965l-5.024628,0.869202c-3.203613,0.586853 -7.245056,0.83551 -12.124298,0.765137c-4.876968,-0.068115 -9.93985,-0.579224 -15.181793,-1.52951c-5.244217,-0.941895 -10.121948,-3.126343 -14.636993,-6.548767c-4.512756,-3.422455 -7.71637,-7.902313 -9.610077,-13.432678l-2.184456,-5.026947c-1.456047,-3.34668 -3.74839,-7.064453 -6.880081,-11.139587c-3.131691,-4.078918 -6.298576,-6.844086 -9.50219,-8.30014l-1.529503,-1.09491c-1.019157,-0.727661 -1.964859,-1.605255 -2.839409,-2.623657c-0.873779,-1.018372 -1.527969,-2.037537 -1.964859,-3.058228c-0.43766,-1.021454 -0.074989,-1.859253 1.091843,-2.516541c1.166824,-0.657227 3.275536,-0.976318 6.335304,-0.976318l4.367378,0.652679c2.912865,0.583771 6.515877,2.327545 10.813637,5.241913c4.295456,2.912109 7.826546,6.697998 10.594032,11.35611c3.351288,5.972626 7.388885,10.523682 12.124298,13.655365c4.731598,3.131683 9.502197,4.694824 14.307251,4.694824c4.805023,0 8.955109,-0.364166 12.451782,-1.088745c3.492828,-0.728424 6.769882,-1.823334 9.829651,-3.278595c1.310669,-9.761597 4.879257,-17.260651 10.702682,-22.502594c-8.300156,-0.872253 -15.762497,-2.185974 -22.390854,-3.9328c-6.624527,-1.749084 -13.470169,-4.587738 -20.532349,-8.52356c-7.06601,-3.930481 -12.927704,-8.811279 -17.586609,-14.633972c-4.659653,-5.825714 -8.483795,-13.473999 -11.467049,-22.937912c-2.984779,-9.467758 -4.477562,-20.389282 -4.477562,-32.767609c0,-17.624847 5.753799,-32.623001 17.259125,-45.002853c-5.38961,-13.25058 -4.880791,-28.104889 1.527954,-44.561378c4.223541,-1.312202 10.486938,-0.327469 18.787094,2.948067c8.301697,3.277069 14.379929,6.084335 18.240799,8.411865c3.86084,2.326782 6.954285,4.298523 9.284882,5.897644c13.546692,-3.785095 27.526443,-5.67804 41.943085,-5.67804s28.39946,1.892944 41.94693,5.67804l8.300903,-5.240387c5.676544,-3.496658 12.379883,-6.701035 20.093933,-9.613899c7.718689,-2.911331 13.620911,-3.713196 17.700623,-2.400986c6.551056,16.457253 7.134857,31.310783 1.743713,44.561363c11.504547,12.379868 17.260651,27.381836 17.260651,45.002853c0,12.378326 -1.498108,23.33429 -4.478302,32.874725c-2.984039,9.541992 -6.841064,17.182602 -11.572662,22.937943c-4.736938,5.754578 -10.636108,10.597107 -17.698303,14.526825c-7.06369,3.93277 -13.911652,6.771423 -20.536163,8.520508c-6.627625,1.749115 -14.089966,3.063629 -22.390106,3.937408c7.570221,6.551056 11.35611,16.891846 11.35611,31.017731l0,46.089355c0,2.618286 0.910492,4.80426 2.733032,6.551056c1.820251,1.743744 4.694885,2.257141 8.627686,1.526428c33.790558,-11.211487 61.352203,-31.417877 82.686432,-60.618439c21.331909,-29.198273 32.001709,-62.072235 32.001709,-98.630295c-0.00766,-30.430145 -7.512115,-58.497528 -22.505676,-84.202194z"/>
  </g>
  <g id="svg_3"/>
  <g id="svg_4"/>
  <g id="svg_5"/>
  <g id="svg_6"/>
  <g id="svg_7"/>
  <g id="svg_8"/>
  <g id="svg_9"/>
  <g id="svg_10"/>
  <g id="svg_11"/>
  <g id="svg_12"/>
  <g id="svg_13"/>
  <g id="svg_14"/>
  <g id="svg_15"/>
  <g id="svg_16"/>
  <g id="svg_17"/>
 </g>
</svg>