<svg width="500" height="500" xmlns="http://www.w3.org/2000/svg">

 <g>
  <title>background</title>
  <rect fill="none" id="canvas_background" height="502" width="502" y="-1" x="-1"/>
 </g>
 <g>
  <title>Layer 1</title>
  <g id="svg_1">
   <path fill="#ffffff" d="m412.117065,283.72583l0,112.434021l-65.182129,0l0,-104.90387c0,-26.352722 -9.427917,-44.337402 -33.021667,-44.337402c-18.010864,0 -28.729126,12.120361 -33.444519,23.844788c-1.719543,4.191406 -2.16214,10.02533 -2.16214,15.892487l0,109.503998l-65.204056,0c0,0 0.878159,-177.672714 0,-196.080948l65.197678,0l0,27.793686c-0.132202,0.207886 -0.304047,0.432007 -0.428467,0.63353l0.428467,0l0,-0.63353c8.66217,-13.341446 24.131866,-32.400162 58.757813,-32.400162c42.899231,-0.000702 75.059021,28.024902 75.059021,88.253403zm-267.220734,-178.167664c-22.306213,0 -36.896332,14.631126 -36.896332,33.871552c0,18.821152 14.168007,33.896301 36.030899,33.896301l0.435547,0c22.738235,0 36.879379,-15.072342 36.879379,-33.896301c-0.428497,-19.240425 -14.141144,-33.871552 -36.449493,-33.871552zm-33.023781,290.601685l65.179314,0l0,-196.080948l-65.179314,0l0,196.080948z" id="LinkedIn"/>
  </g>
  <g id="svg_2"/>
  <g id="svg_3"/>
  <g id="svg_4"/>
  <g id="svg_5"/>
  <g id="svg_6"/>
  <g id="svg_7"/>
  <g id="svg_8"/>
  <g id="svg_9"/>
  <g id="svg_10"/>
  <g id="svg_11"/>
  <g id="svg_12"/>
  <g id="svg_13"/>
  <g id="svg_14"/>
  <g id="svg_15"/>
  <g id="svg_16"/>
 </g>
</svg>