<svg width="18.2" height="14.999999999999998" xmlns="http://www.w3.org/2000/svg">

 <g>
  <title>background</title>
  <rect fill="none" id="canvas_background" height="17" width="20.2" y="-1" x="-1"/>
 </g>
 <g>
  <title>Layer 1</title>
  <path id="svg_1" d="m0,3.999991l18.000002,0l0,6l-9.000003,0l0,1l-3.999999,0l0,-1l-5,0l0,-6zm1,5l2,0l0,-3l1,0l0,3l1,0l0,-4l-4,0l0,4zm5,-4l0,5l1.999999,0l0,-1l2,0l0,-4l-3.999999,0zm1.999999,1l1,0l0,2l-1,0l0,-2zm3,-1l0,4l2,0l0,-3l1,0l0,3l1,0l0,-3l1.000001,0l0,3l1.000002,0l0,-4l-6.000003,0z" fill="#FFFFFF"/>
  <polygon id="svg_2" points="1.0000000298023224,8.999990940093994 3.0000000298023224,8.999990940093994 3.0000000298023224,5.999990940093994 3.9999997913837433,5.999990940093994 3.9999997913837433,8.999990940093994 4.999999791383743,8.999990940093994 4.999999791383743,4.999990940093994 1.0000000298023224,4.999990940093994 " opacity="0" fill="#FFFFFF"/>
  <path id="svg_3" d="m6,4.999991l0,5l1.999999,0l0,-1l2,0l0,-4l-3.999999,0zm2.999999,3l-1,0l0,-2l1,0l0,2z" opacity="0" fill="#FFFFFF"/>
  <polygon id="svg_4" points="10.999998837709427,4.999990940093994 10.999998837709427,8.999990940093994 12.999998837709427,8.999990940093994 12.999998837709427,5.999990940093994 13.999998837709427,5.999990940093994 13.999998837709427,8.999990940093994 14.999998837709427,8.999990940093994 14.999998837709427,5.999990940093994 16.00000074505806,5.999990940093994 16.00000074505806,8.999990940093994 17.000002652406693,8.999990940093994 17.000002652406693,4.999990940093994 " opacity="0" fill="#FFFFFF"/>
 </g>
</svg>